inDegrees=yes
name=ik_data_2024_11_07_17_55
DataType=double
version=3
OpenSimVersion=4.5.1
endheader
time	pelvis_tilt	pelvis_list	pelvis_rotation	pelvis_tx	pelvis_ty	pelvis_tz	hip_flexion_r	hip_adduction_r	hip_rotation_r	knee_angle_r	knee_angle_r_beta	ankle_angle_r	subtalar_angle_r	mtp_angle_r	hip_flexion_l	hip_adduction_l	hip_rotation_l	knee_angle_l	knee_angle_l_beta	ankle_angle_l	subtalar_angle_l	mtp_angle_l	lumbar_extension	lumbar_bending	lumbar_rotation	arm_flex_r	arm_add_r	arm_rot_r	elbow_flex_r	pro_sup_r	wrist_flex_r	wrist_dev_r	arm_flex_l	arm_add_l	arm_rot_l	elbow_flex_l	pro_sup_l	wrist_flex_l	wrist_dev_l
15.09906	-1.691969945353858	-6.112174316174602	121.1076967042497	0	0.9399999999999999	0	-24.03162299319827	-31.85261304748522	32.41325583573718	0.003260182396417432	5.690091703304317e-05	-4.512867152451092	0	0	3.810653518955022	4.619693303723786	-39.98954904951423	0.0563435676547514	0.0009833807678955916	-4.512867152451092	0	0	0	0	0	0	-4.427155824512027	0	45.35131334901875	37.77138653208421	0	0	0	-4.427155824512027	0	45.35131334901875	37.77138653208421	0	0
15.10712	-1.430734619838038	-5.881246064619797	122.33420814336	0	0.9399999999999999	0	-24.07499065129849	-30.42915062247723	31.99740309952343	0.003337031958142443	5.824219491385923e-05	-4.514430004685586	0	0	3.774124078320711	4.348829081119716	-39.98742571594287	0.06760232242191655	0.001179883108257231	-4.514430004685586	0	0	0	0	0	0	-4.431041883102748	0	45.3761937758343	37.78587154033126	0	0	0	-4.431041883102748	0	45.3761937758343	37.78587154033126	0	0
15.1663	-1.35289217261962	-5.965989862532698	121.8778933323321	0	0.9399999999999999	0	-22.00940713092825	-30.24807074841269	33.64964137382102	0.003346012125309087	5.839892839829665e-05	-4.515833260098199	0	0	3.898816469502997	4.299452319892969	-39.98830683637441	0.06301997177313945	0.001099906001955172	-4.515833260098199	0	0	0	0	0	0	-4.43272319770699	0	45.3929830645062	37.79783475477769	0	0	0	-4.43272319770699	0	45.3929830645062	37.79783475477769	0	0
15.21692	-1.443584524568927	-5.854092995652882	122.5343935415185	0	0.9399999999999999	0	-21.3361643008252	-29.52255716005095	33.82801769177547	0.003397220248965309	5.929267875986612e-05	-4.517803315848243	0	0	3.740895436133647	4.357731848616689	-39.98698499737493	0.07003696363171562	0.001222375613472963	-4.517803315848243	0	0	0	0	0	0	-4.438802348806088	0	45.42882622287981	37.81716586271623	0	0	0	-4.438802348806088	0	45.42882622287981	37.81716586271623	0	0
15.28265	-1.259534492208611	-5.883225962468074	122.3327756322887	0	0.9399999999999999	0	-19.55910888145143	-29.04616319899949	35.44133499390411	0.003457212591942474	6.033974267080335e-05	-4.518951616261221	0	0	3.89191007954869	4.20350378799002	-39.98744526264477	0.06849906340874082	0.001195534191014898	-4.518951616261221	0	0	0	0	0	0	-4.439438148408616	0	45.44025915238051	37.82650030148388	0	0	0	-4.439438148408616	0	45.44025915238051	37.82650030148388	0	0
15.28762	-1.380623432300958	-5.758823230955493	123.1324559867995	0	0.9399999999999999	0	-19.05102940542962	-28.07267900823898	35.4463866848417	0.00354505664001161	6.187291053788994e-05	-4.521630957899553	0	0	3.705749672155252	4.286680206484854	-39.98548920877061	0.07796685558255609	0.001360778337342525	-4.521630957899553	0	0	0	0	0	0	-4.44845989318874	0	45.49177025463536	37.85341966140484	0	0	0	-4.44845989318874	0	45.49177025463536	37.85341966140484	0	0
15.33365	-1.023689704666468	-5.58678251116317	123.9990592400191	0	0.9399999999999999	0	-17.73805241947107	-26.26501876889836	35.91187119139377	0.00360854475997217	6.298098726710285e-05	-4.525601944813609	0	0	3.800764785819371	3.944420091437768	-39.98260794770911	0.09387265464201902	0.001638386901090771	-4.525601944813609	0	0	0	0	0	0	-4.46173238963928	0	45.56744801981272	37.89312198241573	0	0	0	-4.46173238963928	0	45.56744801981272	37.89312198241573	0	0
15.39997	-0.906074380214563	-5.414634323413519	124.9395981996407	0	0.9399999999999999	0	-17.13452889304885	-24.89385849584633	35.79939014815464	0.003730382205395876	6.510745184196541e-05	-4.529131256201276	0	0	3.742931785678183	3.803979480483383	-39.97780861309724	0.1180478318150683	0.002060323340013456	-4.529131256201276	0	0	0	0	0	0	-4.474043083709935	0	45.63667361369635	37.92886375321673	0	0	0	-4.474043083709935	0	45.63667361369635	37.92886375321673	0	0
15.46641	-0.4805936926090978	-5.043761547355425	126.7289889903168	0	0.9399999999999999	0	-16.4438583361373	-22.34523822877192	35.09763433665056	0.003836463742555716	6.695892394098133e-05	-4.535052644489574	0	0	3.753556370087098	3.332031271784353	-39.95383615729803	0.2083446468384245	0.003636300066235302	-4.535052644489574	0	0	0	0	0	0	-4.497383510093382	0	45.76080720314586	37.99032833308705	0	0	0	-4.497383510093382	0	45.76080720314586	37.99032833308705	0	0
15.46809	-0.5454915365187049	-4.954405600793709	127.3258008126358	0	0.9399999999999999	0	-15.26480046903612	-21.48371068235101	35.16762842422064	0.003956304494388858	6.90505396385351e-05	-4.537729347032275	0	0	3.657685417828121	3.337799512927271	-39.92968154581536	0.2804395204357961	0.004894592984318565	-4.537729347032275	0	0	0	0	0	0	-4.506685755252968	0	45.81291260087687	38.01730853321202	0	0	0	-4.506685755252968	0	45.81291260087687	38.01730853321202	0	0
